<svg xmlns="http://www.w3.org/2000/svg" xmlns:v="https://svgstorm.com"
viewBox = "0 0 70 70"
width="70"
height="70">
<g fill="None" fill-opacity="0.0" stroke="#2E618B" stroke-opacity="1.00" stroke-width="0.3"><path d="
M 0.00 23.00 
C 1.15 22.84 1.46 21.71 2.00 21.00
C 2.99 19.72 3.99 18.18 5.00 17.00
C 4.08 12.34 6.28 9.03 9.00 6.00
C 9.36 5.37 9.63 4.58 10.00 4.00
C 10.20 3.69 10.88 3.26 11.00 3.00
C 11.05 2.50 11.00 2.00 11.00 2.00
C 11.14 1.20 12.07 0.88 12.00 0.00
L 0.00 0.00
L 0.00 23.00 Z"/>
</g>
<g fill="None" fill-opacity="0.0" stroke="#688487" stroke-opacity="1.00" stroke-width="0.3"><path d="
M 11.00 2.00 
C 13.85 0.43 15.17 4.37 17.00 0.00
L 16.00 0.00
C 15.99 1.19 14.01 1.17 14.00 0.00
L 12.00 0.00
C 12.07 0.88 11.14 1.20 11.00 2.00 Z"/>
</g>
<g fill="None" fill-opacity="0.0" stroke="#2D576D" stroke-opacity="1.00" stroke-width="0.3"><path d="
M 16.00 0.00 
L 14.00 0.00
C 14.01 1.17 15.99 1.19 16.00 0.00 Z"/>
</g>
<g fill="None" fill-opacity="0.0" stroke="#CFDABC" stroke-opacity="1.00" stroke-width="0.3"><path d="
M 11.00 2.00 
C 11.00 2.00 11.05 2.50 11.00 3.00
C 10.97 3.35 9.99 3.96 10.00 4.00
C 9.63 4.58 9.36 5.37 9.00 6.00
C 6.96 9.53 6.05 12.85 6.00 17.00
C 6.16 16.77 7.00 17.00 7.00 17.00
C 7.20 16.60 7.00 16.00 7.00 16.00
C 8.41 7.45 11.47 3.87 18.00 0.00
L 17.00 0.00
C 15.17 4.37 13.85 0.43 11.00 2.00 Z"/>
</g>
<g fill="None" fill-opacity="0.0" stroke="#DBC471" stroke-opacity="1.00" stroke-width="0.3"><path d="
M 7.00 16.00 
C 13.45 12.56 18.76 6.70 26.00 5.00
C 25.53 3.51 26.44 3.01 25.00 2.00
C 23.45 1.98 23.96 1.78 23.00 1.00
C 22.72 0.77 22.17 0.34 22.00 0.00
L 18.00 0.00
C 11.47 3.87 8.41 7.45 7.00 16.00 Z"/>
</g>
<g fill="None" fill-opacity="0.0" stroke="#C3CFCB" stroke-opacity="1.00" stroke-width="0.3"><path d="
M 23.00 1.00 
C 22.95 0.50 23.00 0.00 23.00 0.00
L 22.00 0.00
C 22.17 0.34 22.72 0.77 23.00 1.00 Z"/>
</g>
<g fill="None" fill-opacity="0.0" stroke="#3F6A88" stroke-opacity="1.00" stroke-width="0.3"><path d="
M 23.00 1.00 
C 23.96 1.78 23.45 1.98 25.00 2.00
C 26.89 2.03 27.13 1.40 27.00 5.00
C 27.50 5.00 28.00 5.00 28.00 5.00
C 29.00 5.00 30.00 5.00 31.00 5.00
C 31.50 5.00 32.00 5.00 32.00 5.00
C 32.20 3.14 33.22 1.69 34.00 0.00
L 23.00 0.00
C 23.00 0.00 22.95 0.50 23.00 1.00 Z"/>
</g>
<g fill="None" fill-opacity="0.0" stroke="#E9DEC5" stroke-opacity="1.00" stroke-width="0.3"><path d="
M 32.00 5.00 
C 31.95 5.49 31.77 6.84 32.00 7.00
C 32.50 7.05 33.00 7.00 33.00 7.00
C 33.31 4.26 34.17 2.12 36.00 0.00
L 34.00 0.00
C 33.22 1.69 32.20 3.14 32.00 5.00 Z"/>
</g>
<g fill="None" fill-opacity="0.0" stroke="#CF9245" stroke-opacity="1.00" stroke-width="0.3"><path d="
M 33.00 7.00 
C 36.14 8.53 36.43 6.25 39.00 7.00
C 41.24 5.81 41.80 3.68 44.00 2.00
C 44.14 4.25 41.84 5.71 42.00 8.00
C 44.48 7.90 47.44 5.23 48.00 3.00
C 48.00 2.00 48.00 1.00 48.00 0.00
L 45.00 0.00
C 45.23 1.05 43.80 0.74 44.00 0.00
L 42.00 0.00
C 41.63 1.70 39.58 2.40 40.00 0.00
L 36.00 0.00
C 34.17 2.12 33.31 4.26 33.00 7.00
M 39.00 4.00 
C 39.74 4.74 38.18 3.18 39.00 4.00 Z"/>
</g>
<g fill="None" fill-opacity="0.0" stroke="#8F570F" stroke-opacity="1.00" stroke-width="0.3"><path d="
M 42.00 0.00 
L 40.00 0.00
C 39.58 2.40 41.63 1.70 42.00 0.00 Z"/>
</g>
<g fill="None" fill-opacity="0.0" stroke="#7A4200" stroke-opacity="1.00" stroke-width="0.3"><path d="
M 45.00 0.00 
L 44.00 0.00
C 43.80 0.74 45.23 1.05 45.00 0.00 Z"/>
</g>
<g fill="None" fill-opacity="0.0" stroke="#1B2C2F" stroke-opacity="1.00" stroke-width="0.3"><path d="
M 48.00 3.00 
C 48.00 3.50 48.00 4.50 48.00 5.00
C 49.26 3.69 49.05 1.93 49.00 0.00
L 48.00 0.00
C 48.00 1.00 48.00 2.00 48.00 3.00 Z"/>
</g>
<g fill="None" fill-opacity="0.0" stroke="#336893" stroke-opacity="1.00" stroke-width="0.3"><path d="
M 48.00 5.00 
C 48.00 5.50 48.00 6.00 48.00 6.00
C 48.25 5.75 49.00 6.00 49.00 6.00
C 49.26 5.88 49.65 5.07 50.00 5.00
C 52.97 4.45 56.05 2.03 59.00 2.00
C 60.03 1.79 62.23 -0.19 62.00 3.00
C 63.04 9.67 57.18 14.53 61.00 21.00
C 64.18 21.41 66.72 19.31 70.00 20.00
L 70.00 0.00
L 49.00 0.00
C 49.05 1.93 49.26 3.69 48.00 5.00 Z"/>
</g>
<g fill="None" fill-opacity="0.0" stroke="#D4E7EB" stroke-opacity="1.00" stroke-width="0.3"><path d="
M 25.00 2.00 
C 26.44 3.01 25.53 3.51 26.00 5.00
C 26.47 4.89 27.00 5.00 27.00 5.00
C 27.13 1.40 26.89 2.03 25.00 2.00 Z"/>
</g>
<g fill="None" fill-opacity="0.0" stroke="#A8CADD" stroke-opacity="1.00" stroke-width="0.3"><path d="
M 59.00 2.00 
C 60.60 1.98 60.00 2.33 61.00 3.00
C 61.35 3.23 62.00 3.00 62.00 3.00
C 62.23 -0.19 60.03 1.79 59.00 2.00 Z"/>
</g>
<g fill="None" fill-opacity="0.0" stroke="#8A5519" stroke-opacity="1.00" stroke-width="0.3"><path d="
M 39.00 7.00 
C 39.94 7.27 40.48 8.06 42.00 8.00
C 41.84 5.71 44.14 4.25 44.00 2.00
C 41.80 3.68 41.24 5.81 39.00 7.00 Z"/>
</g>
<g fill="None" fill-opacity="0.0" stroke="#E6E0D1" stroke-opacity="1.00" stroke-width="0.3"><path d="
M 50.00 5.00 
C 49.76 5.06 49.35 5.97 49.00 6.00
C 49.00 6.00 48.25 5.75 48.00 6.00
C 47.75 6.25 48.00 7.00 48.00 7.00
C 50.26 6.36 59.94 4.94 61.00 3.00
C 60.00 2.33 60.60 1.98 59.00 2.00
C 56.05 2.03 52.97 4.45 50.00 5.00 Z"/>
</g>
<g fill="None" fill-opacity="0.0" stroke="#87A093" stroke-opacity="1.00" stroke-width="0.3"><path d="
M 10.00 4.00 
C 9.99 3.96 10.97 3.35 11.00 3.00
C 10.88 3.26 10.20 3.69 10.00 4.00 Z"/>
</g>
<g fill="None" fill-opacity="0.0" stroke="#462306" stroke-opacity="1.00" stroke-width="0.3"><path d="
M 42.00 8.00 
C 40.48 8.06 39.94 7.27 39.00 7.00
C 36.43 6.25 36.14 8.53 33.00 7.00
C 33.00 7.00 32.50 7.05 32.00 7.00
C 31.65 6.97 31.03 6.35 31.00 6.00
C 30.75 6.25 30.00 6.00 30.00 6.00
C 30.09 7.57 31.20 6.73 30.00 8.00
C 28.26 9.85 22.79 10.30 23.00 14.00
C 26.25 12.68 28.20 8.71 32.00 9.00
C 29.96 12.46 26.30 14.19 23.00 16.00
C 22.79 16.11 23.00 17.00 23.00 17.00
C 25.18 16.68 26.76 15.19 29.00 15.00
C 29.00 16.67 29.00 18.33 29.00 20.00
C 28.91 19.81 31.29 22.13 31.00 22.00
C 32.76 21.48 34.53 21.58 36.00 21.00
C 32.69 21.49 29.54 19.68 30.00 16.00
C 28.65 14.24 31.89 16.33 31.00 16.00
C 33.65 16.62 36.24 18.97 39.00 19.00
C 39.98 18.43 40.10 18.79 41.00 18.00
C 39.80 16.32 33.35 14.93 35.00 10.00
C 38.99 9.32 45.36 11.28 43.00 16.00
C 43.09 16.79 43.21 18.72 44.00 20.00
C 44.43 19.83 45.00 20.00 45.00 20.00
C 45.25 19.75 45.00 19.00 45.00 19.00
C 45.35 16.64 49.13 16.56 51.00 16.00
C 49.03 16.25 46.98 15.82 45.00 16.00
C 44.49 14.59 45.81 13.85 47.00 14.00
C 47.52 12.82 46.57 12.56 46.00 12.00
C 44.15 10.19 44.23 9.38 47.00 8.00
C 47.08 7.90 47.83 6.26 48.00 6.00
C 48.00 6.00 48.00 5.50 48.00 5.00
C 48.00 4.50 48.00 3.50 48.00 3.00
C 47.44 5.23 44.48 7.90 42.00 8.00
M 34.00 16.00 
C 33.92 16.08 33.27 15.18 33.00 15.00
C 30.69 13.41 30.71 11.17 34.00 11.00
C 32.96 12.79 36.37 14.97 34.00 16.00 Z"/>
</g>
<g fill="None" fill-opacity="0.0" stroke="#C9954F" stroke-opacity="1.00" stroke-width="0.3"><path d="
M 48.00 7.00 
C 47.97 7.35 47.33 7.83 47.00 8.00
C 44.23 9.38 44.15 10.19 46.00 12.00
C 46.03 9.60 51.33 8.57 53.00 9.00
C 53.76 9.11 55.46 10.27 54.00 10.00
C 53.66 10.84 48.01 14.52 47.00 14.00
C 45.81 13.85 44.49 14.59 45.00 16.00
C 46.98 15.82 49.03 16.25 51.00 16.00
C 51.49 15.94 52.58 15.82 53.00 16.00
C 54.23 15.48 55.64 13.72 57.00 13.00
C 57.23 11.39 59.46 10.99 60.00 10.00
C 60.11 9.52 59.88 8.47 60.00 8.00
C 60.09 7.65 60.87 7.27 61.00 7.00
C 61.33 5.94 60.44 3.93 61.00 3.00
C 59.94 4.94 50.26 6.36 48.00 7.00 Z"/>
</g>
<g fill="None" fill-opacity="0.0" stroke="#050B0C" stroke-opacity="1.00" stroke-width="0.3"><path d="
M 61.00 7.00 
C 60.89 7.35 60.11 7.74 60.00 8.00
C 59.88 8.47 60.11 9.52 60.00 10.00
C 59.85 10.66 58.44 12.60 58.00 13.00
C 58.23 13.16 58.00 14.50 58.00 15.00
C 58.00 15.50 58.00 16.00 58.00 16.00
C 57.63 17.18 55.04 17.32 54.00 17.00
C 53.74 17.08 53.26 16.11 53.00 16.00
C 52.58 15.82 51.49 15.94 51.00 16.00
C 49.13 16.56 45.35 16.64 45.00 19.00
C 45.31 18.67 47.52 19.09 48.00 19.00
C 50.37 18.55 63.52 19.56 57.00 22.00
C 58.51 22.17 60.10 23.30 59.00 25.00
C 58.77 25.35 59.00 26.00 59.00 26.00
C 61.94 28.36 65.52 29.83 70.00 29.00
L 70.00 20.00
C 66.72 19.31 64.18 21.41 61.00 21.00
C 57.18 14.53 63.04 9.67 62.00 3.00
C 62.00 3.00 61.35 3.23 61.00 3.00
C 60.44 3.93 61.33 5.94 61.00 7.00 Z"/>
</g>
<g fill="None" fill-opacity="0.0" stroke="#733200" stroke-opacity="1.00" stroke-width="0.3"><path d="
M 39.00 4.00 
C 38.18 3.18 39.74 4.74 39.00 4.00 Z"/>
</g>
<g fill="None" fill-opacity="0.0" stroke="#4D3005" stroke-opacity="1.00" stroke-width="0.3"><path d="
M 7.00 16.00 
C 7.00 16.00 7.20 16.60 7.00 17.00
C 5.60 19.86 2.29 22.06 0.00 24.00
L 0.00 26.00
C 3.39 21.30 8.31 17.31 13.00 14.00
C 13.26 13.77 13.70 13.21 14.00 13.00
C 18.08 10.13 21.44 8.56 26.00 7.00
C 26.59 6.80 27.00 6.19 28.00 6.00
C 27.77 5.66 28.00 5.00 28.00 5.00
C 28.00 5.00 27.50 5.00 27.00 5.00
C 27.00 5.00 26.47 4.89 26.00 5.00
C 18.76 6.70 13.45 12.56 7.00 16.00 Z"/>
</g>
<g fill="None" fill-opacity="0.0" stroke="#191C16" stroke-opacity="1.00" stroke-width="0.3"><path d="
M 28.00 6.00 
C 28.48 5.91 29.50 6.00 30.00 6.00
C 30.00 6.00 30.75 6.25 31.00 6.00
C 30.95 5.50 31.00 5.00 31.00 5.00
C 30.00 5.00 29.00 5.00 28.00 5.00
C 28.00 5.00 27.77 5.66 28.00 6.00 Z"/>
</g>
<g fill="None" fill-opacity="0.0" stroke="#9E9988" stroke-opacity="1.00" stroke-width="0.3"><path d="
M 31.00 6.00 
C 31.03 6.35 31.65 6.97 32.00 7.00
C 31.77 6.84 31.95 5.49 32.00 5.00
C 32.00 5.00 31.50 5.00 31.00 5.00
C 31.00 5.00 30.95 5.50 31.00 6.00 Z"/>
</g>
<g fill="None" fill-opacity="0.0" stroke="#80999C" stroke-opacity="1.00" stroke-width="0.3"><path d="
M 49.00 6.00 
C 49.35 5.97 49.76 5.06 50.00 5.00
C 49.65 5.07 49.26 5.88 49.00 6.00 Z"/>
</g>
<g fill="None" fill-opacity="0.0" stroke="#577B89" stroke-opacity="1.00" stroke-width="0.3"><path d="
M 5.00 17.00 
C 5.21 16.75 6.00 17.00 6.00 17.00
C 6.05 12.85 6.96 9.53 9.00 6.00
C 6.28 9.03 4.08 12.34 5.00 17.00 Z"/>
</g>
<g fill="None" fill-opacity="0.0" stroke="#88612E" stroke-opacity="1.00" stroke-width="0.3"><path d="
M 26.00 7.00 
C 26.66 6.98 30.31 7.92 30.00 8.00
C 31.20 6.73 30.09 7.57 30.00 6.00
C 29.50 6.00 28.48 5.91 28.00 6.00
C 27.00 6.19 26.59 6.80 26.00 7.00 Z"/>
</g>
<g fill="None" fill-opacity="0.0" stroke="#806543" stroke-opacity="1.00" stroke-width="0.3"><path d="
M 47.00 8.00 
C 47.33 7.83 47.97 7.35 48.00 7.00
C 48.00 7.00 47.75 6.25 48.00 6.00
C 47.83 6.26 47.08 7.90 47.00 8.00 Z"/>
</g>
<g fill="None" fill-opacity="0.0" stroke="#DB9438" stroke-opacity="1.00" stroke-width="0.3"><path d="
M 14.00 13.00 
C 13.74 13.23 13.30 13.79 13.00 14.00
C 8.31 17.31 3.39 21.30 0.00 26.00
L 0.00 32.00
C 5.19 29.04 9.78 17.75 16.00 17.00
C 16.08 16.92 17.09 17.91 17.00 18.00
C 19.27 18.26 21.09 16.96 23.00 16.00
C 26.30 14.19 29.96 12.46 32.00 9.00
C 28.20 8.71 26.25 12.68 23.00 14.00
C 22.79 10.30 28.26 9.85 30.00 8.00
C 30.31 7.92 26.66 6.98 26.00 7.00
C 21.44 8.56 18.08 10.13 14.00 13.00 Z"/>
</g>
<g fill="None" fill-opacity="0.0" stroke="#6E5B3B" stroke-opacity="1.00" stroke-width="0.3"><path d="
M 60.00 8.00 
C 60.11 7.74 60.89 7.35 61.00 7.00
C 60.87 7.27 60.09 7.65 60.00 8.00 Z"/>
</g>
<g fill="None" fill-opacity="0.0" stroke="#6D400D" stroke-opacity="1.00" stroke-width="0.3"><path d="
M 46.00 12.00 
C 46.57 12.56 47.52 12.82 47.00 14.00
C 48.01 14.52 53.66 10.84 54.00 10.00
C 53.65 9.93 53.24 9.06 53.00 9.00
C 51.33 8.57 46.03 9.60 46.00 12.00
M 51.00 10.00 
C 51.74 10.74 50.18 9.18 51.00 10.00
M 49.00 11.00 
C 49.74 11.74 48.18 10.18 49.00 11.00 Z"/>
</g>
<g fill="None" fill-opacity="0.0" stroke="#350B00" stroke-opacity="1.00" stroke-width="0.3"><path d="
M 54.00 10.00 
C 55.46 10.27 53.76 9.11 53.00 9.00
C 53.24 9.06 53.65 9.93 54.00 10.00 Z"/>
</g>
<g fill="None" fill-opacity="0.0" stroke="#C98D40" stroke-opacity="1.00" stroke-width="0.3"><path d="
M 41.00 18.00 
C 41.43 17.62 42.75 16.47 43.00 16.00
C 45.36 11.28 38.99 9.32 35.00 10.00
C 33.35 14.93 39.80 16.32 41.00 18.00
M 38.00 11.00 
C 39.79 12.79 37.23 10.23 38.00 11.00 Z"/>
</g>
<g fill="None" fill-opacity="0.0" stroke="#BB8C51" stroke-opacity="1.00" stroke-width="0.3"><path d="
M 51.00 10.00 
C 50.18 9.18 51.74 10.74 51.00 10.00 Z"/>
</g>
<g fill="None" fill-opacity="0.0" stroke="#65522C" stroke-opacity="1.00" stroke-width="0.3"><path d="
M 57.00 13.00 
C 57.39 12.79 58.00 13.00 58.00 13.00
C 58.44 12.60 59.85 10.66 60.00 10.00
C 59.46 10.99 57.23 11.39 57.00 13.00 Z"/>
</g>
<g fill="None" fill-opacity="0.0" stroke="#BC8A4F" stroke-opacity="1.00" stroke-width="0.3"><path d="
M 33.00 15.00 
C 33.32 15.18 34.09 15.91 34.00 16.00
C 36.37 14.97 32.96 12.79 34.00 11.00
C 30.71 11.17 30.69 13.41 33.00 15.00 Z"/>
</g>
<g fill="None" fill-opacity="0.0" stroke="#753400" stroke-opacity="1.00" stroke-width="0.3"><path d="
M 38.00 11.00 
C 37.23 10.23 39.79 12.79 38.00 11.00 Z"/>
</g>
<g fill="None" fill-opacity="0.0" stroke="#AC8850" stroke-opacity="1.00" stroke-width="0.3"><path d="
M 49.00 11.00 
C 48.18 10.18 49.74 11.74 49.00 11.00 Z"/>
</g>
<g fill="None" fill-opacity="0.0" stroke="#866417" stroke-opacity="1.00" stroke-width="0.3"><path d="
M 13.00 14.00 
C 13.30 13.79 13.74 13.23 14.00 13.00
C 13.70 13.21 13.26 13.77 13.00 14.00 Z"/>
</g>
<g fill="None" fill-opacity="0.0" stroke="#2F1703" stroke-opacity="1.00" stroke-width="0.3"><path d="
M 53.00 16.00 
C 53.26 16.11 53.74 17.08 54.00 17.00
C 54.60 16.82 54.93 16.12 56.00 16.00
C 56.21 15.90 57.29 14.25 58.00 15.00
C 58.00 14.50 58.23 13.16 58.00 13.00
C 58.00 13.00 57.39 12.79 57.00 13.00
C 55.64 13.72 54.23 15.48 53.00 16.00 Z"/>
</g>
<g fill="None" fill-opacity="0.0" stroke="#DB9237" stroke-opacity="1.00" stroke-width="0.3"><path d="
M 23.00 17.00 
C 20.35 20.62 14.70 22.04 11.25 25.25 C 7.81 28.46 5.34 32.89 2.00 36.00
C 2.03 35.88 3.53 36.12 4.00 36.00
C 7.86 33.94 11.34 31.32 15.00 29.00
C 15.27 28.83 15.65 28.13 16.00 28.00
C 20.32 26.37 24.60 24.57 29.00 23.00
C 30.28 23.45 29.01 20.04 29.00 20.00
C 29.00 18.33 29.00 16.67 29.00 15.00
C 26.76 15.19 25.18 16.68 23.00 17.00 Z"/>
</g>
<g fill="None" fill-opacity="0.0" stroke="#7E5727" stroke-opacity="1.00" stroke-width="0.3"><path d="
M 30.00 16.00 
C 30.01 15.94 31.00 16.00 31.00 16.00
C 31.89 16.33 28.65 14.24 30.00 16.00 Z"/>
</g>
<g fill="None" fill-opacity="0.0" stroke="#8C5A19" stroke-opacity="1.00" stroke-width="0.3"><path d="
M 34.00 16.00 
C 34.09 15.91 33.32 15.18 33.00 15.00
C 33.27 15.18 33.92 16.08 34.00 16.00 Z"/>
</g>
<g fill="None" fill-opacity="0.0" stroke="#A18F7A" stroke-opacity="1.00" stroke-width="0.3"><path d="
M 56.00 16.00 
C 56.49 15.95 57.84 16.23 58.00 16.00
C 58.00 16.00 58.00 15.50 58.00 15.00
C 57.29 14.25 56.21 15.90 56.00 16.00 Z"/>
</g>
<g fill="None" fill-opacity="0.0" stroke="#905315" stroke-opacity="1.00" stroke-width="0.3"><path d="
M 17.00 18.00 
C 16.92 18.08 15.91 17.09 16.00 17.00
C 9.78 17.75 5.19 29.04 0.00 32.00
L 0.00 34.00
C 1.05 33.77 0.74 35.20 0.00 35.00
L 0.00 37.00
C 0.12 36.70 1.97 36.12 2.00 36.00
C 5.34 32.89 7.81 28.46 11.25 25.25 C 14.70 22.04 20.35 20.62 23.00 17.00
C 23.00 17.00 22.79 16.11 23.00 16.00
C 21.09 16.96 19.27 18.26 17.00 18.00
M 17.00 19.00 
C 13.17 24.06 10.50 19.36 17.00 19.00
M 5.00 29.00 
C 4.23 34.52 -0.16 31.38 5.00 29.00 Z"/>
</g>
<g fill="None" fill-opacity="0.0" stroke="#C98C47" stroke-opacity="1.00" stroke-width="0.3"><path d="
M 36.00 21.00 
C 37.43 20.44 37.90 19.64 39.00 19.00
C 36.24 18.97 33.65 16.62 31.00 16.00
C 31.00 16.00 30.01 15.94 30.00 16.00
C 29.54 19.68 32.69 21.49 36.00 21.00 Z"/>
</g>
<g fill="None" fill-opacity="0.0" stroke="#1D1B15" stroke-opacity="1.00" stroke-width="0.3"><path d="
M 41.00 18.00 
C 40.10 18.79 39.98 18.43 39.00 19.00
C 37.90 19.64 37.43 20.44 36.00 21.00
C 34.53 21.58 32.76 21.48 31.00 22.00
C 30.77 22.07 29.52 22.81 29.00 23.00
C 24.60 24.57 20.32 26.37 16.00 28.00
C 15.73 28.13 15.12 29.10 15.00 29.00
C 14.93 28.94 14.03 30.94 14.00 31.00
C 14.26 30.75 15.00 31.00 15.00 31.00
C 15.26 30.88 15.67 30.17 16.00 30.00
C 24.69 25.54 34.97 23.60 44.00 20.00
C 43.21 18.72 43.09 16.79 43.00 16.00
C 42.75 16.47 41.43 17.62 41.00 18.00 Z"/>
</g>
<g fill="None" fill-opacity="0.0" stroke="#6B604F" stroke-opacity="1.00" stroke-width="0.3"><path d="
M 54.00 17.00 
C 55.04 17.32 57.63 17.18 58.00 16.00
C 57.84 16.23 56.49 15.95 56.00 16.00
C 54.93 16.12 54.60 16.82 54.00 17.00 Z"/>
</g>
<g fill="None" fill-opacity="0.0" stroke="#2A3E47" stroke-opacity="1.00" stroke-width="0.3"><path d="
M 2.00 21.00 
C 3.39 19.59 4.85 18.65 6.00 17.00
C 6.00 17.00 5.21 16.75 5.00 17.00
C 3.99 18.18 2.99 19.72 2.00 21.00 Z"/>
</g>
<g fill="None" fill-opacity="0.0" stroke="#19170A" stroke-opacity="1.00" stroke-width="0.3"><path d="
M 2.00 21.00 
C 1.46 21.71 1.15 22.84 0.00 23.00
L 0.00 24.00
C 2.29 22.06 5.60 19.86 7.00 17.00
C 7.00 17.00 6.16 16.77 6.00 17.00
C 4.85 18.65 3.39 19.59 2.00 21.00 Z"/>
</g>
<g fill="None" fill-opacity="0.0" stroke="#440100" stroke-opacity="1.00" stroke-width="0.3"><path d="
M 17.00 18.00 
C 17.09 17.91 16.08 16.92 16.00 17.00
C 15.91 17.09 16.92 18.08 17.00 18.00 Z"/>
</g>
<g fill="None" fill-opacity="0.0" stroke="#6A92AE" stroke-opacity="1.00" stroke-width="0.3"><path d="
M 48.00 19.00 
C 47.00 19.41 46.60 20.19 45.00 20.00
C 45.00 20.00 44.43 19.83 44.00 20.00
C 34.97 23.60 24.69 25.54 16.00 30.00
C 15.73 30.18 15.35 30.97 15.00 31.00
C 15.00 31.00 14.26 30.75 14.00 31.00
C 13.33 32.07 12.95 32.30 12.00 33.00
C 11.53 33.55 11.40 34.47 11.00 35.00
C 24.67 29.51 39.83 27.04 54.00 23.00
C 54.93 22.73 55.45 21.83 57.00 22.00
C 63.52 19.56 50.37 18.55 48.00 19.00 Z"/>
</g>
<g fill="None" fill-opacity="0.0" stroke="#C88838" stroke-opacity="1.00" stroke-width="0.3"><path d="
M 17.00 19.00 
C 10.50 19.36 13.17 24.06 17.00 19.00 Z"/>
</g>
<g fill="None" fill-opacity="0.0" stroke="#908E8B" stroke-opacity="1.00" stroke-width="0.3"><path d="
M 45.00 20.00 
C 46.60 20.19 47.00 19.41 48.00 19.00
C 47.52 19.09 45.31 18.67 45.00 19.00
C 45.00 19.00 45.25 19.75 45.00 20.00 Z"/>
</g>
<g fill="None" fill-opacity="0.0" stroke="#705637" stroke-opacity="1.00" stroke-width="0.3"><path d="
M 29.00 23.00 
C 29.52 22.81 30.77 22.07 31.00 22.00
C 31.29 22.13 28.91 19.81 29.00 20.00
C 29.01 20.04 30.28 23.45 29.00 23.00 Z"/>
</g>
<g fill="None" fill-opacity="0.0" stroke="#3D464E" stroke-opacity="1.00" stroke-width="0.3"><path d="
M 54.00 23.00 
C 55.60 23.14 54.94 23.30 56.00 24.00
C 56.35 24.23 57.00 24.00 57.00 24.00
C 57.11 24.02 59.01 25.02 59.00 25.00
C 60.10 23.30 58.51 22.17 57.00 22.00
C 55.45 21.83 54.93 22.73 54.00 23.00 Z"/>
</g>
<g fill="None" fill-opacity="0.0" stroke="#060A0E" stroke-opacity="1.00" stroke-width="0.3"><path d="
M 11.00 35.00 
C 9.66 36.76 1.06 42.69 3.00 39.00
C 3.37 38.30 3.86 37.80 4.00 37.00
C 3.03 37.58 1.14 37.67 0.00 38.00
L 0.00 47.00
C 2.59 45.59 4.03 48.67 6.00 49.00
C 5.75 48.76 6.15 47.45 6.00 47.00
C 4.78 43.48 8.49 43.79 10.00 41.00
C 12.85 45.83 17.52 51.53 24.00 51.00
C 26.52 51.23 29.48 51.23 32.00 51.00
C 34.70 50.44 36.58 50.58 39.00 49.00
C 39.44 48.62 40.66 47.39 41.00 47.00
C 42.35 44.94 42.39 43.26 43.00 41.00
C 42.50 41.05 42.00 41.00 42.00 41.00
C 41.49 42.15 41.52 43.82 41.00 45.00
C 40.85 45.34 40.09 46.09 40.00 46.00
C 34.21 47.06 19.97 39.98 15.00 37.00
C 14.01 36.41 14.27 36.53 15.00 36.00
C 17.26 34.14 21.20 38.20 25.00 38.00 C 28.81 37.79 33.68 40.85 38.00 40.00
C 37.76 39.81 38.00 39.00 38.00 39.00
C 32.79 36.25 25.98 35.26 20.00 35.00
C 23.07 33.12 27.29 31.25 31.00 33.00
C 26.82 37.90 42.15 36.06 43.00 40.00
C 43.50 39.95 44.00 40.00 44.00 40.00
C 45.71 36.26 44.22 32.91 44.00 29.00
C 47.35 32.23 48.55 36.35 52.25 39.75 C 55.95 43.15 62.16 41.40 65.00 44.00
C 66.02 41.65 67.58 39.15 70.00 38.00
L 70.00 34.00
C 64.12 36.16 49.11 32.27 46.00 26.00
C 50.90 28.00 55.51 30.95 61.00 31.00
C 61.35 30.96 62.10 30.13 62.00 30.00
C 60.38 28.72 52.19 24.74 56.00 24.00
C 54.94 23.30 55.60 23.14 54.00 23.00
C 39.83 27.04 24.67 29.51 11.00 35.00
M 51.00 25.00 
C 51.61 25.61 49.34 23.34 51.00 25.00 Z"/>
</g>
<g fill="None" fill-opacity="0.0" stroke="#D4D5D6" stroke-opacity="1.00" stroke-width="0.3"><path d="
M 62.00 30.00 
C 63.27 30.04 64.73 30.54 65.00 32.00
C 63.72 31.72 61.50 32.76 61.00 31.00
C 55.51 30.95 50.90 28.00 46.00 26.00
C 49.11 32.27 64.12 36.16 70.00 34.00
L 70.00 29.00
C 65.52 29.83 61.94 28.36 59.00 26.00
C 58.19 25.35 57.67 24.64 57.00 24.00
C 57.00 24.00 56.35 24.23 56.00 24.00
C 52.19 24.74 60.38 28.72 62.00 30.00 Z"/>
</g>
<g fill="None" fill-opacity="0.0" stroke="#8A8A8B" stroke-opacity="1.00" stroke-width="0.3"><path d="
M 59.00 26.00 
C 59.00 26.00 58.77 25.35 59.00 25.00
C 59.01 25.02 57.11 24.02 57.00 24.00
C 57.67 24.64 58.19 25.35 59.00 26.00 Z"/>
</g>
<g fill="None" fill-opacity="0.0" stroke="#737476" stroke-opacity="1.00" stroke-width="0.3"><path d="
M 51.00 25.00 
C 49.34 23.34 51.61 25.61 51.00 25.00 Z"/>
</g>
<g fill="None" fill-opacity="0.0" stroke="#885B26" stroke-opacity="1.00" stroke-width="0.3"><path d="
M 15.00 29.00 
C 15.12 29.10 15.73 28.13 16.00 28.00
C 15.65 28.13 15.27 28.83 15.00 29.00 Z"/>
</g>
<g fill="None" fill-opacity="0.0" stroke="#BA853F" stroke-opacity="1.00" stroke-width="0.3"><path d="
M 5.00 29.00 
C -0.16 31.38 4.23 34.52 5.00 29.00 Z"/>
</g>
<g fill="None" fill-opacity="0.0" stroke="#36200D" stroke-opacity="1.00" stroke-width="0.3"><path d="
M 4.00 36.00 
C 3.79 36.11 4.00 37.00 4.00 37.00
C 3.86 37.80 3.37 38.30 3.00 39.00
C 3.32 39.27 11.22 33.57 12.00 33.00
C 12.95 32.30 13.33 32.07 14.00 31.00
C 14.03 30.94 14.93 28.94 15.00 29.00
C 11.34 31.32 7.86 33.94 4.00 36.00 Z"/>
</g>
<g fill="None" fill-opacity="0.0" stroke="#6C9BBE" stroke-opacity="1.00" stroke-width="0.3"><path d="
M 44.00 40.00 
C 43.84 40.34 43.35 40.97 43.00 41.00
C 42.39 43.26 42.35 44.94 41.00 47.00
C 40.32 48.05 40.01 48.34 39.00 49.00
C 36.58 50.58 34.70 50.44 32.00 51.00
C 29.01 51.62 26.93 51.61 24.00 51.00
C 17.52 51.53 12.85 45.83 10.00 41.00
C 8.49 43.79 4.78 43.48 6.00 47.00
C 7.48 46.83 12.92 52.39 15.00 53.00
C 22.90 55.30 31.68 57.55 29.00 69.00
C 28.49 61.58 23.56 52.26 14.00 55.00
C 13.71 56.18 14.02 57.78 14.00 59.00
C 16.67 57.80 22.15 61.89 24.00 63.00
C 24.32 63.19 24.96 63.65 25.00 64.00
C 25.22 66.09 24.58 68.25 26.00 70.00
L 42.00 70.00
C 46.24 67.39 51.93 63.34 55.25 59.25 C 58.57 55.16 63.95 47.05 64.00 47.00
C 65.09 44.74 66.48 41.91 70.00 43.00
L 70.00 38.00
C 67.58 39.15 66.02 41.65 65.00 44.00
C 62.16 41.40 55.95 43.15 52.25 39.75 C 48.55 36.35 47.35 32.23 44.00 29.00
C 44.22 32.91 45.71 36.26 44.00 40.00
M 51.00 42.00 
C 53.45 43.31 50.09 49.36 47.30 47.64 C 44.51 45.93 47.34 40.05 51.00 42.00
M 51.00 52.00 
C 52.62 60.23 40.17 63.45 37.00 56.00
C 42.31 59.94 48.82 57.80 51.00 52.00 Z"/>
</g>
<g fill="None" fill-opacity="0.0" stroke="#40505D" stroke-opacity="1.00" stroke-width="0.3"><path d="
M 15.00 31.00 
C 15.35 30.97 15.73 30.18 16.00 30.00
C 15.67 30.17 15.26 30.88 15.00 31.00 Z"/>
</g>
<g fill="None" fill-opacity="0.0" stroke="#494949" stroke-opacity="1.00" stroke-width="0.3"><path d="
M 61.00 31.00 
C 61.50 32.76 63.72 31.72 65.00 32.00
C 64.73 30.54 63.27 30.04 62.00 30.00
C 62.10 30.13 61.35 30.96 61.00 31.00 Z"/>
</g>
<g fill="None" fill-opacity="0.0" stroke="#D4D5D6" stroke-opacity="1.00" stroke-width="0.3"><path d="
M 38.00 39.00 
C 38.76 39.40 38.97 39.69 38.00 40.00
C 33.68 40.85 28.81 37.79 25.00 38.00 C 21.20 38.20 17.26 34.14 15.00 36.00
C 15.24 36.19 15.00 37.00 15.00 37.00
C 19.97 39.98 34.21 47.06 40.00 46.00
C 39.92 45.92 40.82 45.27 41.00 45.00
C 41.52 43.82 41.49 42.15 42.00 41.00
C 42.15 40.66 42.65 40.03 43.00 40.00
C 42.15 36.06 26.82 37.90 31.00 33.00
C 27.29 31.25 23.07 33.12 20.00 35.00
C 25.98 35.26 32.79 36.25 38.00 39.00 Z"/>
</g>
<g fill="None" fill-opacity="0.0" stroke="#6F6762" stroke-opacity="1.00" stroke-width="0.3"><path d="
M 3.00 39.00 
C 1.06 42.69 9.66 36.76 11.00 35.00
C 11.40 34.47 11.53 33.55 12.00 33.00
C 11.22 33.57 3.32 39.27 3.00 39.00 Z"/>
</g>
<g fill="None" fill-opacity="0.0" stroke="#B7965F" stroke-opacity="1.00" stroke-width="0.3"><path d="
M 0.00 35.00 
C 0.74 35.20 1.05 33.77 0.00 34.00
L 0.00 35.00 Z"/>
</g>
<g fill="None" fill-opacity="0.0" stroke="#9F8B5E" stroke-opacity="1.00" stroke-width="0.3"><path d="
M 0.00 37.00 
L 0.00 38.00
C 1.14 37.67 3.03 37.58 4.00 37.00
C 4.00 37.00 3.79 36.11 4.00 36.00
C 3.53 36.12 2.03 35.88 2.00 36.00
C 1.97 36.12 0.12 36.70 0.00 37.00 Z"/>
</g>
<g fill="None" fill-opacity="0.0" stroke="#6C6D71" stroke-opacity="1.00" stroke-width="0.3"><path d="
M 15.00 37.00 
C 15.00 37.00 15.24 36.19 15.00 36.00
C 14.27 36.53 14.01 36.41 15.00 37.00 Z"/>
</g>
<g fill="None" fill-opacity="0.0" stroke="#4F4F51" stroke-opacity="1.00" stroke-width="0.3"><path d="
M 38.00 40.00 
C 38.97 39.69 38.76 39.40 38.00 39.00
C 38.00 39.00 37.76 39.81 38.00 40.00 Z"/>
</g>
<g fill="None" fill-opacity="0.0" stroke="#3B505C" stroke-opacity="1.00" stroke-width="0.3"><path d="
M 42.00 41.00 
C 42.00 41.00 42.50 41.05 43.00 41.00
C 43.35 40.97 43.84 40.34 44.00 40.00
C 44.00 40.00 43.50 39.95 43.00 40.00
C 42.65 40.03 42.15 40.66 42.00 41.00 Z"/>
</g>
<g fill="None" fill-opacity="0.0" stroke="#31384A" stroke-opacity="1.00" stroke-width="0.3"><path d="
M 51.00 42.00 
C 47.34 40.05 44.51 45.93 47.30 47.64 C 50.09 49.36 53.45 43.31 51.00 42.00
M 50.00 45.00 
C 49.18 45.82 48.40 46.24 47.00 46.00
C 47.41 45.17 47.97 44.13 49.00 44.00
C 49.13 42.18 52.01 44.86 50.00 45.00 Z"/>
</g>
<g fill="None" fill-opacity="0.0" stroke="#796E77" stroke-opacity="1.00" stroke-width="0.3"><path d="
M 49.00 44.00 
C 49.23 43.91 49.86 45.01 50.00 45.00
C 52.01 44.86 49.13 42.18 49.00 44.00 Z"/>
</g>
<g fill="None" fill-opacity="0.0" stroke="#87BCC1" stroke-opacity="1.00" stroke-width="0.3"><path d="
M 64.00 47.00 
C 59.94 55.40 54.42 62.99 48.00 70.00
L 67.00 70.00
C 67.41 65.05 66.29 60.53 65.00 56.00
C 64.65 55.97 64.09 55.35 64.00 55.00
C 63.64 53.52 65.20 52.94 65.00 54.00
C 65.91 53.78 66.03 55.55 66.00 56.00
C 65.97 56.50 66.00 57.00 66.00 57.00
C 66.81 54.31 67.58 51.03 66.00 48.00
C 69.40 48.48 68.39 55.97 67.00 58.00
C 67.75 59.85 66.95 65.98 70.00 64.00
L 70.00 43.00
C 66.48 41.91 65.09 44.74 64.00 47.00 Z"/>
</g>
<g fill="None" fill-opacity="0.0" stroke="#AE959D" stroke-opacity="1.00" stroke-width="0.3"><path d="
M 50.00 45.00 
C 49.86 45.01 49.23 43.91 49.00 44.00
C 47.97 44.13 47.41 45.17 47.00 46.00
C 48.40 46.24 49.18 45.82 50.00 45.00 Z"/>
</g>
<g fill="None" fill-opacity="0.0" stroke="#5B6669" stroke-opacity="1.00" stroke-width="0.3"><path d="
M 40.00 46.00 
C 40.09 46.09 40.85 45.34 41.00 45.00
C 40.82 45.27 39.92 45.92 40.00 46.00 Z"/>
</g>
<g fill="None" fill-opacity="0.0" stroke="#163342" stroke-opacity="1.00" stroke-width="0.3"><path d="
M 42.00 70.00 
L 48.00 70.00
C 54.42 62.99 59.94 55.40 64.00 47.00
C 63.95 47.05 58.57 55.16 55.25 59.25 C 51.93 63.34 46.24 67.39 42.00 70.00 Z"/>
</g>
<g fill="None" fill-opacity="0.0" stroke="#80BABE" stroke-opacity="1.00" stroke-width="0.3"><path d="
M 0.00 56.00 
C 1.47 54.84 6.07 55.36 7.00 57.00
C 7.77 52.70 9.93 52.75 6.00 49.00
C 4.03 48.67 2.59 45.59 0.00 47.00
L 0.00 56.00 Z"/>
</g>
<g fill="None" fill-opacity="0.0" stroke="#25383C" stroke-opacity="1.00" stroke-width="0.3"><path d="
M 6.00 49.00 
C 9.93 52.75 7.77 52.70 7.00 57.00
C 6.54 59.58 7.35 62.40 7.00 65.00
C 9.65 65.21 12.35 64.84 15.00 65.00
C 14.94 66.89 16.42 68.29 17.00 70.00
L 22.00 70.00
C 21.03 68.09 20.41 66.10 20.00 64.00
C 18.91 74.27 14.11 60.93 14.00 59.00
C 14.02 57.78 13.71 56.18 14.00 55.00
C 14.03 54.89 15.05 52.98 15.00 53.00
C 12.92 52.39 7.48 46.83 6.00 47.00
C 6.15 47.45 5.75 48.76 6.00 49.00
M 13.00 56.00 
C 10.55 60.77 6.88 54.63 13.00 56.00
M 12.00 59.00 
C 10.87 64.15 5.02 57.60 12.00 59.00
M 13.00 63.00 
C 8.30 66.42 7.35 59.35 13.00 63.00 Z"/>
</g>
<g fill="None" fill-opacity="0.0" stroke="#344E61" stroke-opacity="1.00" stroke-width="0.3"><path d="
M 39.00 49.00 
C 40.01 48.34 40.32 48.05 41.00 47.00
C 40.66 47.39 39.44 48.62 39.00 49.00 Z"/>
</g>
<g fill="None" fill-opacity="0.0" stroke="#335A5E" stroke-opacity="1.00" stroke-width="0.3"><path d="
M 66.00 57.00 
C 66.03 57.35 66.90 57.74 67.00 58.00
C 68.39 55.97 69.40 48.48 66.00 48.00
C 67.58 51.03 66.81 54.31 66.00 57.00 Z"/>
</g>
<g fill="None" fill-opacity="0.0" stroke="#374F60" stroke-opacity="1.00" stroke-width="0.3"><path d="
M 32.00 51.00 
C 29.48 51.23 26.52 51.23 24.00 51.00
C 26.93 51.61 29.01 51.62 32.00 51.00 Z"/>
</g>
<g fill="None" fill-opacity="0.0" stroke="#143149" stroke-opacity="1.00" stroke-width="0.3"><path d="
M 51.00 52.00 
C 48.82 57.80 42.31 59.94 37.00 56.00
C 40.17 63.45 52.62 60.23 51.00 52.00 Z"/>
</g>
<g fill="None" fill-opacity="0.0" stroke="#264866" stroke-opacity="1.00" stroke-width="0.3"><path d="
M 14.00 55.00 
C 23.56 52.26 28.49 61.58 29.00 69.00
C 31.68 57.55 22.90 55.30 15.00 53.00
C 15.05 52.98 14.03 54.89 14.00 55.00 Z"/>
</g>
<g fill="None" fill-opacity="0.0" stroke="#00272A" stroke-opacity="1.00" stroke-width="0.3"><path d="
M 64.00 55.00 
C 64.04 54.78 64.93 54.35 65.00 54.00
C 65.20 52.94 63.64 53.52 64.00 55.00 Z"/>
</g>
<g fill="None" fill-opacity="0.0" stroke="#486C6D" stroke-opacity="1.00" stroke-width="0.3"><path d="
M 64.00 55.00 
C 64.09 55.35 64.65 55.97 65.00 56.00
C 65.50 56.05 66.00 56.00 66.00 56.00
C 66.03 55.55 65.91 53.78 65.00 54.00
C 64.93 54.35 64.04 54.78 64.00 55.00 Z"/>
</g>
<g fill="None" fill-opacity="0.0" stroke="#A9CDC3" stroke-opacity="1.00" stroke-width="0.3"><path d="
M 0.00 56.00 
L 0.00 64.00
C 2.58 63.76 4.49 64.80 7.00 65.00
C 7.35 62.40 6.54 59.58 7.00 57.00
C 6.07 55.36 1.47 54.84 0.00 56.00 Z"/>
</g>
<g fill="None" fill-opacity="0.0" stroke="#8DACAA" stroke-opacity="1.00" stroke-width="0.3"><path d="
M 13.00 56.00 
C 6.88 54.63 10.55 60.77 13.00 56.00 Z"/>
</g>
<g fill="None" fill-opacity="0.0" stroke="#15363A" stroke-opacity="1.00" stroke-width="0.3"><path d="
M 67.00 70.00 
L 70.00 70.00
L 70.00 69.00
C 68.72 68.78 68.58 66.19 70.00 66.00
L 70.00 64.00
C 66.95 65.98 67.75 59.85 67.00 58.00
C 66.90 57.74 66.03 57.35 66.00 57.00
C 66.00 57.00 65.97 56.50 66.00 56.00
C 66.00 56.00 65.50 56.05 65.00 56.00
C 66.29 60.53 67.41 65.05 67.00 70.00 Z"/>
</g>
<g fill="None" fill-opacity="0.0" stroke="#99ABA5" stroke-opacity="1.00" stroke-width="0.3"><path d="
M 12.00 59.00 
C 5.02 57.60 10.87 64.15 12.00 59.00 Z"/>
</g>
<g fill="None" fill-opacity="0.0" stroke="#98ACAD" stroke-opacity="1.00" stroke-width="0.3"><path d="
M 22.00 70.00 
L 23.00 70.00
C 23.68 68.45 23.53 66.64 24.00 65.00
C 24.00 65.02 21.97 62.93 24.00 63.00
C 22.15 61.89 16.67 57.80 14.00 59.00
C 14.11 60.93 18.91 74.27 20.00 64.00
C 20.41 66.10 21.03 68.09 22.00 70.00 Z"/>
</g>
<g fill="None" fill-opacity="0.0" stroke="#96A6A0" stroke-opacity="1.00" stroke-width="0.3"><path d="
M 13.00 63.00 
C 7.35 59.35 8.30 66.42 13.00 63.00 Z"/>
</g>
<g fill="None" fill-opacity="0.0" stroke="#5F7A80" stroke-opacity="1.00" stroke-width="0.3"><path d="
M 24.00 65.00 
C 24.10 64.65 24.96 64.22 25.00 64.00
C 24.96 63.65 24.32 63.19 24.00 63.00
C 21.97 62.93 24.00 65.02 24.00 65.00 Z"/>
</g>
<g fill="None" fill-opacity="0.0" stroke="#8AA5AF" stroke-opacity="1.00" stroke-width="0.3"><path d="
M 0.00 67.00 
C 4.10 67.72 9.74 65.59 13.00 68.00
C 13.50 68.00 14.00 68.00 14.00 68.00
C 14.35 68.03 14.97 68.65 15.00 69.00
C 15.05 69.50 15.00 70.00 15.00 70.00
L 17.00 70.00
C 16.42 68.29 14.94 66.89 15.00 65.00
C 12.35 64.84 9.65 65.21 7.00 65.00
C 4.49 64.80 2.58 63.76 0.00 64.00
L 0.00 67.00 Z"/>
</g>
<g fill="None" fill-opacity="0.0" stroke="#152433" stroke-opacity="1.00" stroke-width="0.3"><path d="
M 24.00 65.00 
C 23.53 66.64 23.68 68.45 23.00 70.00
L 26.00 70.00
C 24.58 68.25 25.22 66.09 25.00 64.00
C 24.96 64.22 24.10 64.65 24.00 65.00 Z"/>
</g>
<g fill="None" fill-opacity="0.0" stroke="#95B2B5" stroke-opacity="1.00" stroke-width="0.3"><path d="
M 70.00 69.00 
L 70.00 66.00
C 68.58 66.19 68.72 68.78 70.00 69.00 Z"/>
</g>
<g fill="None" fill-opacity="0.0" stroke="#455A52" stroke-opacity="1.00" stroke-width="0.3"><path d="
M 0.00 68.00 
C 4.00 68.00 8.00 68.00 12.00 68.00
C 12.50 68.00 13.00 68.00 13.00 68.00
C 9.74 65.59 4.10 67.72 0.00 67.00
L 0.00 68.00 Z"/>
</g>
<g fill="None" fill-opacity="0.0" stroke="#474415" stroke-opacity="1.00" stroke-width="0.3"><path d="
M 0.00 69.00 
C 3.94 69.42 8.08 68.44 12.00 69.00
C 11.81 68.59 12.00 68.00 12.00 68.00
C 8.00 68.00 4.00 68.00 0.00 68.00
L 0.00 69.00 Z"/>
</g>
<g fill="None" fill-opacity="0.0" stroke="#23291F" stroke-opacity="1.00" stroke-width="0.3"><path d="
M 12.00 69.00 
C 12.12 69.26 12.84 69.67 13.00 70.00
L 15.00 70.00
C 15.00 70.00 15.05 69.50 15.00 69.00
C 14.88 68.74 14.26 68.12 14.00 68.00
C 14.00 68.00 13.50 68.00 13.00 68.00
C 13.00 68.00 12.50 68.00 12.00 68.00
C 12.00 68.00 11.81 68.59 12.00 69.00 Z"/>
</g>
<g fill="None" fill-opacity="0.0" stroke="#4E6063" stroke-opacity="1.00" stroke-width="0.3"><path d="
M 15.00 69.00 
C 14.97 68.65 14.35 68.03 14.00 68.00
C 14.26 68.12 14.88 68.74 15.00 69.00 Z"/>
</g>
<g fill="None" fill-opacity="0.0" stroke="#CBBD7C" stroke-opacity="1.00" stroke-width="0.3"><path d="
M 0.00 70.00 
L 13.00 70.00
C 12.84 69.67 12.12 69.26 12.00 69.00
C 8.08 68.44 3.94 69.42 0.00 69.00
L 0.00 70.00 Z"/>
</g>
<g fill="#2E618B" fill-opacity="1.00" stroke="None">
<path d="
M 0.00 23.00 
C 1.15 22.84 1.46 21.71 2.00 21.00
C 2.99 19.72 3.99 18.18 5.00 17.00
C 4.08 12.34 6.28 9.03 9.00 6.00
C 9.36 5.37 9.63 4.58 10.00 4.00
C 10.20 3.69 10.88 3.26 11.00 3.00
C 11.05 2.50 11.00 2.00 11.00 2.00
C 11.14 1.20 12.07 0.88 12.00 0.00
L 0.00 0.00
L 0.00 23.00 Z"/>
</g>
<g fill="#688487" fill-opacity="1.00" stroke="None">
<path d="
M 11.00 2.00 
C 13.85 0.43 15.17 4.37 17.00 0.00
L 16.00 0.00
C 15.99 1.19 14.01 1.17 14.00 0.00
L 12.00 0.00
C 12.07 0.88 11.14 1.20 11.00 2.00 Z"/>
</g>
<g fill="#2D576D" fill-opacity="1.00" stroke="None">
<path d="
M 16.00 0.00 
L 14.00 0.00
C 14.01 1.17 15.99 1.19 16.00 0.00 Z"/>
</g>
<g fill="#CFDABC" fill-opacity="1.00" stroke="None">
<path d="
M 11.00 2.00 
C 11.00 2.00 11.05 2.50 11.00 3.00
C 10.97 3.35 9.99 3.96 10.00 4.00
C 9.63 4.58 9.36 5.37 9.00 6.00
C 6.96 9.53 6.05 12.85 6.00 17.00
C 6.16 16.77 7.00 17.00 7.00 17.00
C 7.20 16.60 7.00 16.00 7.00 16.00
C 8.41 7.45 11.47 3.87 18.00 0.00
L 17.00 0.00
C 15.17 4.37 13.85 0.43 11.00 2.00 Z"/>
</g>
<g fill="#DBC471" fill-opacity="1.00" stroke="None">
<path d="
M 7.00 16.00 
C 13.45 12.56 18.76 6.70 26.00 5.00
C 25.53 3.51 26.44 3.01 25.00 2.00
C 23.45 1.98 23.96 1.78 23.00 1.00
C 22.72 0.77 22.17 0.34 22.00 0.00
L 18.00 0.00
C 11.47 3.87 8.41 7.45 7.00 16.00 Z"/>
</g>
<g fill="#C3CFCB" fill-opacity="1.00" stroke="None">
<path d="
M 23.00 1.00 
C 22.95 0.50 23.00 0.00 23.00 0.00
L 22.00 0.00
C 22.17 0.34 22.72 0.77 23.00 1.00 Z"/>
</g>
<g fill="#3F6A88" fill-opacity="1.00" stroke="None">
<path d="
M 23.00 1.00 
C 23.96 1.78 23.45 1.98 25.00 2.00
C 26.89 2.03 27.13 1.40 27.00 5.00
C 27.50 5.00 28.00 5.00 28.00 5.00
C 29.00 5.00 30.00 5.00 31.00 5.00
C 31.50 5.00 32.00 5.00 32.00 5.00
C 32.20 3.14 33.22 1.69 34.00 0.00
L 23.00 0.00
C 23.00 0.00 22.95 0.50 23.00 1.00 Z"/>
</g>
<g fill="#E9DEC5" fill-opacity="1.00" stroke="None">
<path d="
M 32.00 5.00 
C 31.95 5.49 31.77 6.84 32.00 7.00
C 32.50 7.05 33.00 7.00 33.00 7.00
C 33.31 4.26 34.17 2.12 36.00 0.00
L 34.00 0.00
C 33.22 1.69 32.20 3.14 32.00 5.00 Z"/>
</g>
<g fill="#CF9245" fill-opacity="1.00" stroke="None">
<path d="
M 33.00 7.00 
C 36.14 8.53 36.43 6.25 39.00 7.00
C 41.24 5.81 41.80 3.68 44.00 2.00
C 44.14 4.25 41.84 5.71 42.00 8.00
C 44.48 7.90 47.44 5.23 48.00 3.00
C 48.00 2.00 48.00 1.00 48.00 0.00
L 45.00 0.00
C 45.23 1.05 43.80 0.74 44.00 0.00
L 42.00 0.00
C 41.63 1.70 39.58 2.40 40.00 0.00
L 36.00 0.00
C 34.17 2.12 33.31 4.26 33.00 7.00
M 39.00 4.00 
C 39.74 4.74 38.18 3.18 39.00 4.00 Z"/>
</g>
<g fill="#8F570F" fill-opacity="1.00" stroke="None">
<path d="
M 42.00 0.00 
L 40.00 0.00
C 39.58 2.40 41.63 1.70 42.00 0.00 Z"/>
</g>
<g fill="#7A4200" fill-opacity="1.00" stroke="None">
<path d="
M 45.00 0.00 
L 44.00 0.00
C 43.80 0.74 45.23 1.05 45.00 0.00 Z"/>
</g>
<g fill="#1B2C2F" fill-opacity="1.00" stroke="None">
<path d="
M 48.00 3.00 
C 48.00 3.50 48.00 4.50 48.00 5.00
C 49.26 3.69 49.05 1.93 49.00 0.00
L 48.00 0.00
C 48.00 1.00 48.00 2.00 48.00 3.00 Z"/>
</g>
<g fill="#336893" fill-opacity="1.00" stroke="None">
<path d="
M 48.00 5.00 
C 48.00 5.50 48.00 6.00 48.00 6.00
C 48.25 5.75 49.00 6.00 49.00 6.00
C 49.26 5.88 49.65 5.07 50.00 5.00
C 52.97 4.45 56.05 2.03 59.00 2.00
C 60.03 1.79 62.23 -0.19 62.00 3.00
C 63.04 9.67 57.18 14.53 61.00 21.00
C 64.18 21.41 66.72 19.31 70.00 20.00
L 70.00 0.00
L 49.00 0.00
C 49.05 1.93 49.26 3.69 48.00 5.00 Z"/>
</g>
<g fill="#D4E7EB" fill-opacity="1.00" stroke="None">
<path d="
M 25.00 2.00 
C 26.44 3.01 25.53 3.51 26.00 5.00
C 26.47 4.89 27.00 5.00 27.00 5.00
C 27.13 1.40 26.89 2.03 25.00 2.00 Z"/>
</g>
<g fill="#A8CADD" fill-opacity="1.00" stroke="None">
<path d="
M 59.00 2.00 
C 60.60 1.98 60.00 2.33 61.00 3.00
C 61.35 3.23 62.00 3.00 62.00 3.00
C 62.23 -0.19 60.03 1.79 59.00 2.00 Z"/>
</g>
<g fill="#8A5519" fill-opacity="1.00" stroke="None">
<path d="
M 39.00 7.00 
C 39.94 7.27 40.48 8.06 42.00 8.00
C 41.84 5.71 44.14 4.25 44.00 2.00
C 41.80 3.68 41.24 5.81 39.00 7.00 Z"/>
</g>
<g fill="#E6E0D1" fill-opacity="1.00" stroke="None">
<path d="
M 50.00 5.00 
C 49.76 5.06 49.35 5.97 49.00 6.00
C 49.00 6.00 48.25 5.75 48.00 6.00
C 47.75 6.25 48.00 7.00 48.00 7.00
C 50.26 6.36 59.94 4.94 61.00 3.00
C 60.00 2.33 60.60 1.98 59.00 2.00
C 56.05 2.03 52.97 4.45 50.00 5.00 Z"/>
</g>
<g fill="#87A093" fill-opacity="1.00" stroke="None">
<path d="
M 10.00 4.00 
C 9.99 3.96 10.97 3.35 11.00 3.00
C 10.88 3.26 10.20 3.69 10.00 4.00 Z"/>
</g>
<g fill="#462306" fill-opacity="1.00" stroke="None">
<path d="
M 42.00 8.00 
C 40.48 8.06 39.94 7.27 39.00 7.00
C 36.43 6.25 36.14 8.53 33.00 7.00
C 33.00 7.00 32.50 7.05 32.00 7.00
C 31.65 6.97 31.03 6.35 31.00 6.00
C 30.75 6.25 30.00 6.00 30.00 6.00
C 30.09 7.57 31.20 6.73 30.00 8.00
C 28.26 9.85 22.79 10.30 23.00 14.00
C 26.25 12.68 28.20 8.71 32.00 9.00
C 29.96 12.46 26.30 14.19 23.00 16.00
C 22.79 16.11 23.00 17.00 23.00 17.00
C 25.18 16.68 26.76 15.19 29.00 15.00
C 29.00 16.67 29.00 18.33 29.00 20.00
C 28.91 19.81 31.29 22.13 31.00 22.00
C 32.76 21.48 34.53 21.58 36.00 21.00
C 32.69 21.49 29.54 19.68 30.00 16.00
C 28.65 14.24 31.89 16.33 31.00 16.00
C 33.65 16.62 36.24 18.97 39.00 19.00
C 39.98 18.43 40.10 18.79 41.00 18.00
C 39.80 16.32 33.35 14.93 35.00 10.00
C 38.99 9.32 45.36 11.28 43.00 16.00
C 43.09 16.79 43.21 18.72 44.00 20.00
C 44.43 19.83 45.00 20.00 45.00 20.00
C 45.25 19.75 45.00 19.00 45.00 19.00
C 45.35 16.64 49.13 16.56 51.00 16.00
C 49.03 16.25 46.98 15.82 45.00 16.00
C 44.49 14.59 45.81 13.85 47.00 14.00
C 47.52 12.82 46.57 12.56 46.00 12.00
C 44.15 10.19 44.23 9.38 47.00 8.00
C 47.08 7.90 47.83 6.26 48.00 6.00
C 48.00 6.00 48.00 5.50 48.00 5.00
C 48.00 4.50 48.00 3.50 48.00 3.00
C 47.44 5.23 44.48 7.90 42.00 8.00
M 34.00 16.00 
C 33.92 16.08 33.27 15.18 33.00 15.00
C 30.69 13.41 30.71 11.17 34.00 11.00
C 32.96 12.79 36.37 14.97 34.00 16.00 Z"/>
</g>
<g fill="#C9954F" fill-opacity="1.00" stroke="None">
<path d="
M 48.00 7.00 
C 47.97 7.35 47.33 7.83 47.00 8.00
C 44.23 9.38 44.15 10.19 46.00 12.00
C 46.03 9.60 51.33 8.57 53.00 9.00
C 53.76 9.11 55.46 10.27 54.00 10.00
C 53.66 10.84 48.01 14.52 47.00 14.00
C 45.81 13.85 44.49 14.59 45.00 16.00
C 46.98 15.82 49.03 16.25 51.00 16.00
C 51.49 15.94 52.58 15.82 53.00 16.00
C 54.23 15.48 55.64 13.72 57.00 13.00
C 57.23 11.39 59.46 10.99 60.00 10.00
C 60.11 9.52 59.88 8.47 60.00 8.00
C 60.09 7.65 60.87 7.27 61.00 7.00
C 61.33 5.94 60.44 3.93 61.00 3.00
C 59.94 4.94 50.26 6.36 48.00 7.00 Z"/>
</g>
<g fill="#050B0C" fill-opacity="1.00" stroke="None">
<path d="
M 61.00 7.00 
C 60.89 7.35 60.11 7.74 60.00 8.00
C 59.88 8.47 60.11 9.52 60.00 10.00
C 59.85 10.66 58.44 12.60 58.00 13.00
C 58.23 13.16 58.00 14.50 58.00 15.00
C 58.00 15.50 58.00 16.00 58.00 16.00
C 57.63 17.18 55.04 17.32 54.00 17.00
C 53.74 17.08 53.26 16.11 53.00 16.00
C 52.58 15.82 51.49 15.94 51.00 16.00
C 49.13 16.56 45.35 16.64 45.00 19.00
C 45.31 18.67 47.52 19.09 48.00 19.00
C 50.37 18.55 63.52 19.56 57.00 22.00
C 58.51 22.17 60.10 23.30 59.00 25.00
C 58.77 25.35 59.00 26.00 59.00 26.00
C 61.94 28.36 65.52 29.83 70.00 29.00
L 70.00 20.00
C 66.72 19.31 64.18 21.41 61.00 21.00
C 57.18 14.53 63.04 9.67 62.00 3.00
C 62.00 3.00 61.35 3.23 61.00 3.00
C 60.44 3.93 61.33 5.94 61.00 7.00 Z"/>
</g>
<g fill="#733200" fill-opacity="1.00" stroke="None">
<path d="
M 39.00 4.00 
C 38.18 3.18 39.74 4.74 39.00 4.00 Z"/>
</g>
<g fill="#4D3005" fill-opacity="1.00" stroke="None">
<path d="
M 7.00 16.00 
C 7.00 16.00 7.20 16.60 7.00 17.00
C 5.60 19.86 2.29 22.06 0.00 24.00
L 0.00 26.00
C 3.39 21.30 8.31 17.31 13.00 14.00
C 13.26 13.77 13.70 13.21 14.00 13.00
C 18.08 10.13 21.44 8.56 26.00 7.00
C 26.59 6.80 27.00 6.19 28.00 6.00
C 27.77 5.66 28.00 5.00 28.00 5.00
C 28.00 5.00 27.50 5.00 27.00 5.00
C 27.00 5.00 26.47 4.89 26.00 5.00
C 18.76 6.70 13.45 12.56 7.00 16.00 Z"/>
</g>
<g fill="#191C16" fill-opacity="1.00" stroke="None">
<path d="
M 28.00 6.00 
C 28.48 5.91 29.50 6.00 30.00 6.00
C 30.00 6.00 30.75 6.25 31.00 6.00
C 30.95 5.50 31.00 5.00 31.00 5.00
C 30.00 5.00 29.00 5.00 28.00 5.00
C 28.00 5.00 27.77 5.66 28.00 6.00 Z"/>
</g>
<g fill="#9E9988" fill-opacity="1.00" stroke="None">
<path d="
M 31.00 6.00 
C 31.03 6.35 31.65 6.97 32.00 7.00
C 31.77 6.84 31.95 5.49 32.00 5.00
C 32.00 5.00 31.50 5.00 31.00 5.00
C 31.00 5.00 30.95 5.50 31.00 6.00 Z"/>
</g>
<g fill="#80999C" fill-opacity="1.00" stroke="None">
<path d="
M 49.00 6.00 
C 49.35 5.97 49.76 5.06 50.00 5.00
C 49.65 5.07 49.26 5.88 49.00 6.00 Z"/>
</g>
<g fill="#577B89" fill-opacity="1.00" stroke="None">
<path d="
M 5.00 17.00 
C 5.21 16.75 6.00 17.00 6.00 17.00
C 6.05 12.85 6.96 9.53 9.00 6.00
C 6.28 9.03 4.08 12.34 5.00 17.00 Z"/>
</g>
<g fill="#88612E" fill-opacity="1.00" stroke="None">
<path d="
M 26.00 7.00 
C 26.66 6.98 30.31 7.92 30.00 8.00
C 31.20 6.73 30.09 7.57 30.00 6.00
C 29.50 6.00 28.48 5.91 28.00 6.00
C 27.00 6.19 26.59 6.80 26.00 7.00 Z"/>
</g>
<g fill="#806543" fill-opacity="1.00" stroke="None">
<path d="
M 47.00 8.00 
C 47.33 7.83 47.97 7.35 48.00 7.00
C 48.00 7.00 47.75 6.25 48.00 6.00
C 47.83 6.26 47.08 7.90 47.00 8.00 Z"/>
</g>
<g fill="#DB9438" fill-opacity="1.00" stroke="None">
<path d="
M 14.00 13.00 
C 13.74 13.23 13.30 13.79 13.00 14.00
C 8.31 17.31 3.39 21.30 0.00 26.00
L 0.00 32.00
C 5.19 29.04 9.78 17.75 16.00 17.00
C 16.08 16.92 17.09 17.91 17.00 18.00
C 19.27 18.26 21.09 16.96 23.00 16.00
C 26.30 14.19 29.96 12.46 32.00 9.00
C 28.20 8.71 26.25 12.68 23.00 14.00
C 22.79 10.30 28.26 9.85 30.00 8.00
C 30.31 7.92 26.66 6.98 26.00 7.00
C 21.44 8.56 18.08 10.13 14.00 13.00 Z"/>
</g>
<g fill="#6E5B3B" fill-opacity="1.00" stroke="None">
<path d="
M 60.00 8.00 
C 60.11 7.74 60.89 7.35 61.00 7.00
C 60.87 7.27 60.09 7.65 60.00 8.00 Z"/>
</g>
<g fill="#6D400D" fill-opacity="1.00" stroke="None">
<path d="
M 46.00 12.00 
C 46.57 12.56 47.52 12.82 47.00 14.00
C 48.01 14.52 53.66 10.84 54.00 10.00
C 53.65 9.93 53.24 9.06 53.00 9.00
C 51.33 8.57 46.03 9.60 46.00 12.00
M 51.00 10.00 
C 51.74 10.74 50.18 9.18 51.00 10.00
M 49.00 11.00 
C 49.74 11.74 48.18 10.18 49.00 11.00 Z"/>
</g>
<g fill="#350B00" fill-opacity="1.00" stroke="None">
<path d="
M 54.00 10.00 
C 55.46 10.27 53.76 9.11 53.00 9.00
C 53.24 9.06 53.65 9.93 54.00 10.00 Z"/>
</g>
<g fill="#C98D40" fill-opacity="1.00" stroke="None">
<path d="
M 41.00 18.00 
C 41.43 17.62 42.75 16.47 43.00 16.00
C 45.36 11.28 38.99 9.32 35.00 10.00
C 33.35 14.93 39.80 16.32 41.00 18.00
M 38.00 11.00 
C 39.79 12.79 37.23 10.23 38.00 11.00 Z"/>
</g>
<g fill="#BB8C51" fill-opacity="1.00" stroke="None">
<path d="
M 51.00 10.00 
C 50.18 9.18 51.74 10.74 51.00 10.00 Z"/>
</g>
<g fill="#65522C" fill-opacity="1.00" stroke="None">
<path d="
M 57.00 13.00 
C 57.39 12.79 58.00 13.00 58.00 13.00
C 58.44 12.60 59.85 10.66 60.00 10.00
C 59.46 10.99 57.23 11.39 57.00 13.00 Z"/>
</g>
<g fill="#BC8A4F" fill-opacity="1.00" stroke="None">
<path d="
M 33.00 15.00 
C 33.32 15.18 34.09 15.91 34.00 16.00
C 36.37 14.97 32.96 12.79 34.00 11.00
C 30.71 11.17 30.69 13.41 33.00 15.00 Z"/>
</g>
<g fill="#753400" fill-opacity="1.00" stroke="None">
<path d="
M 38.00 11.00 
C 37.23 10.23 39.79 12.79 38.00 11.00 Z"/>
</g>
<g fill="#AC8850" fill-opacity="1.00" stroke="None">
<path d="
M 49.00 11.00 
C 48.18 10.18 49.74 11.74 49.00 11.00 Z"/>
</g>
<g fill="#866417" fill-opacity="1.00" stroke="None">
<path d="
M 13.00 14.00 
C 13.30 13.79 13.74 13.23 14.00 13.00
C 13.70 13.21 13.26 13.77 13.00 14.00 Z"/>
</g>
<g fill="#2F1703" fill-opacity="1.00" stroke="None">
<path d="
M 53.00 16.00 
C 53.26 16.11 53.74 17.08 54.00 17.00
C 54.60 16.82 54.93 16.12 56.00 16.00
C 56.21 15.90 57.29 14.25 58.00 15.00
C 58.00 14.50 58.23 13.16 58.00 13.00
C 58.00 13.00 57.39 12.79 57.00 13.00
C 55.64 13.72 54.23 15.48 53.00 16.00 Z"/>
</g>
<g fill="#DB9237" fill-opacity="1.00" stroke="None">
<path d="
M 23.00 17.00 
C 20.35 20.62 14.70 22.04 11.25 25.25 C 7.81 28.46 5.34 32.89 2.00 36.00
C 2.03 35.88 3.53 36.12 4.00 36.00
C 7.86 33.94 11.34 31.32 15.00 29.00
C 15.27 28.83 15.65 28.13 16.00 28.00
C 20.32 26.37 24.60 24.57 29.00 23.00
C 30.28 23.45 29.01 20.04 29.00 20.00
C 29.00 18.33 29.00 16.67 29.00 15.00
C 26.76 15.19 25.18 16.68 23.00 17.00 Z"/>
</g>
<g fill="#7E5727" fill-opacity="1.00" stroke="None">
<path d="
M 30.00 16.00 
C 30.01 15.94 31.00 16.00 31.00 16.00
C 31.89 16.33 28.65 14.24 30.00 16.00 Z"/>
</g>
<g fill="#8C5A19" fill-opacity="1.00" stroke="None">
<path d="
M 34.00 16.00 
C 34.09 15.91 33.32 15.18 33.00 15.00
C 33.27 15.18 33.92 16.08 34.00 16.00 Z"/>
</g>
<g fill="#A18F7A" fill-opacity="1.00" stroke="None">
<path d="
M 56.00 16.00 
C 56.49 15.95 57.84 16.23 58.00 16.00
C 58.00 16.00 58.00 15.50 58.00 15.00
C 57.29 14.25 56.21 15.90 56.00 16.00 Z"/>
</g>
<g fill="#905315" fill-opacity="1.00" stroke="None">
<path d="
M 17.00 18.00 
C 16.92 18.08 15.91 17.09 16.00 17.00
C 9.78 17.75 5.19 29.04 0.00 32.00
L 0.00 34.00
C 1.05 33.77 0.74 35.20 0.00 35.00
L 0.00 37.00
C 0.12 36.70 1.97 36.12 2.00 36.00
C 5.34 32.89 7.81 28.46 11.25 25.25 C 14.70 22.04 20.35 20.62 23.00 17.00
C 23.00 17.00 22.79 16.11 23.00 16.00
C 21.09 16.96 19.27 18.26 17.00 18.00
M 17.00 19.00 
C 13.17 24.06 10.50 19.36 17.00 19.00
M 5.00 29.00 
C 4.23 34.52 -0.16 31.38 5.00 29.00 Z"/>
</g>
<g fill="#C98C47" fill-opacity="1.00" stroke="None">
<path d="
M 36.00 21.00 
C 37.43 20.44 37.90 19.64 39.00 19.00
C 36.24 18.97 33.65 16.62 31.00 16.00
C 31.00 16.00 30.01 15.94 30.00 16.00
C 29.54 19.68 32.69 21.49 36.00 21.00 Z"/>
</g>
<g fill="#1D1B15" fill-opacity="1.00" stroke="None">
<path d="
M 41.00 18.00 
C 40.10 18.79 39.98 18.43 39.00 19.00
C 37.90 19.64 37.43 20.44 36.00 21.00
C 34.53 21.58 32.76 21.48 31.00 22.00
C 30.77 22.07 29.52 22.81 29.00 23.00
C 24.60 24.57 20.32 26.37 16.00 28.00
C 15.73 28.13 15.12 29.10 15.00 29.00
C 14.93 28.94 14.03 30.94 14.00 31.00
C 14.26 30.75 15.00 31.00 15.00 31.00
C 15.26 30.88 15.67 30.17 16.00 30.00
C 24.69 25.54 34.97 23.60 44.00 20.00
C 43.21 18.72 43.09 16.79 43.00 16.00
C 42.75 16.47 41.43 17.62 41.00 18.00 Z"/>
</g>
<g fill="#6B604F" fill-opacity="1.00" stroke="None">
<path d="
M 54.00 17.00 
C 55.04 17.32 57.63 17.18 58.00 16.00
C 57.84 16.23 56.49 15.95 56.00 16.00
C 54.93 16.12 54.60 16.82 54.00 17.00 Z"/>
</g>
<g fill="#2A3E47" fill-opacity="1.00" stroke="None">
<path d="
M 2.00 21.00 
C 3.39 19.59 4.85 18.65 6.00 17.00
C 6.00 17.00 5.21 16.75 5.00 17.00
C 3.99 18.18 2.99 19.72 2.00 21.00 Z"/>
</g>
<g fill="#19170A" fill-opacity="1.00" stroke="None">
<path d="
M 2.00 21.00 
C 1.46 21.71 1.15 22.84 0.00 23.00
L 0.00 24.00
C 2.29 22.06 5.60 19.86 7.00 17.00
C 7.00 17.00 6.16 16.77 6.00 17.00
C 4.85 18.65 3.39 19.59 2.00 21.00 Z"/>
</g>
<g fill="#440100" fill-opacity="1.00" stroke="None">
<path d="
M 17.00 18.00 
C 17.09 17.91 16.08 16.92 16.00 17.00
C 15.91 17.09 16.92 18.08 17.00 18.00 Z"/>
</g>
<g fill="#6A92AE" fill-opacity="1.00" stroke="None">
<path d="
M 48.00 19.00 
C 47.00 19.41 46.60 20.19 45.00 20.00
C 45.00 20.00 44.43 19.83 44.00 20.00
C 34.97 23.60 24.69 25.54 16.00 30.00
C 15.73 30.18 15.35 30.97 15.00 31.00
C 15.00 31.00 14.26 30.75 14.00 31.00
C 13.33 32.07 12.95 32.30 12.00 33.00
C 11.53 33.55 11.40 34.47 11.00 35.00
C 24.67 29.51 39.83 27.04 54.00 23.00
C 54.93 22.73 55.45 21.83 57.00 22.00
C 63.52 19.56 50.37 18.55 48.00 19.00 Z"/>
</g>
<g fill="#C88838" fill-opacity="1.00" stroke="None">
<path d="
M 17.00 19.00 
C 10.50 19.36 13.17 24.06 17.00 19.00 Z"/>
</g>
<g fill="#908E8B" fill-opacity="1.00" stroke="None">
<path d="
M 45.00 20.00 
C 46.60 20.19 47.00 19.41 48.00 19.00
C 47.52 19.09 45.31 18.67 45.00 19.00
C 45.00 19.00 45.25 19.75 45.00 20.00 Z"/>
</g>
<g fill="#705637" fill-opacity="1.00" stroke="None">
<path d="
M 29.00 23.00 
C 29.52 22.81 30.77 22.07 31.00 22.00
C 31.29 22.13 28.91 19.81 29.00 20.00
C 29.01 20.04 30.28 23.45 29.00 23.00 Z"/>
</g>
<g fill="#3D464E" fill-opacity="1.00" stroke="None">
<path d="
M 54.00 23.00 
C 55.60 23.14 54.94 23.30 56.00 24.00
C 56.35 24.23 57.00 24.00 57.00 24.00
C 57.11 24.02 59.01 25.02 59.00 25.00
C 60.10 23.30 58.51 22.17 57.00 22.00
C 55.45 21.83 54.93 22.73 54.00 23.00 Z"/>
</g>
<g fill="#060A0E" fill-opacity="1.00" stroke="None">
<path d="
M 11.00 35.00 
C 9.66 36.76 1.06 42.69 3.00 39.00
C 3.37 38.30 3.86 37.80 4.00 37.00
C 3.03 37.58 1.14 37.67 0.00 38.00
L 0.00 47.00
C 2.59 45.59 4.03 48.67 6.00 49.00
C 5.75 48.76 6.15 47.45 6.00 47.00
C 4.78 43.48 8.49 43.79 10.00 41.00
C 12.85 45.83 17.52 51.53 24.00 51.00
C 26.52 51.23 29.48 51.23 32.00 51.00
C 34.70 50.44 36.58 50.58 39.00 49.00
C 39.44 48.62 40.66 47.39 41.00 47.00
C 42.35 44.94 42.39 43.26 43.00 41.00
C 42.50 41.05 42.00 41.00 42.00 41.00
C 41.49 42.15 41.52 43.82 41.00 45.00
C 40.85 45.34 40.09 46.09 40.00 46.00
C 34.21 47.06 19.97 39.98 15.00 37.00
C 14.01 36.41 14.27 36.53 15.00 36.00
C 17.26 34.14 21.20 38.20 25.00 38.00 C 28.81 37.79 33.68 40.85 38.00 40.00
C 37.76 39.81 38.00 39.00 38.00 39.00
C 32.79 36.25 25.98 35.26 20.00 35.00
C 23.07 33.12 27.29 31.25 31.00 33.00
C 26.82 37.90 42.15 36.06 43.00 40.00
C 43.50 39.95 44.00 40.00 44.00 40.00
C 45.71 36.26 44.22 32.91 44.00 29.00
C 47.35 32.23 48.55 36.35 52.25 39.75 C 55.95 43.15 62.16 41.40 65.00 44.00
C 66.02 41.65 67.58 39.15 70.00 38.00
L 70.00 34.00
C 64.12 36.16 49.11 32.27 46.00 26.00
C 50.90 28.00 55.51 30.95 61.00 31.00
C 61.35 30.96 62.10 30.13 62.00 30.00
C 60.38 28.72 52.19 24.74 56.00 24.00
C 54.94 23.30 55.60 23.14 54.00 23.00
C 39.83 27.04 24.67 29.51 11.00 35.00
M 51.00 25.00 
C 51.61 25.61 49.34 23.34 51.00 25.00 Z"/>
</g>
<g fill="#D4D5D6" fill-opacity="1.00" stroke="None">
<path d="
M 62.00 30.00 
C 63.27 30.04 64.73 30.54 65.00 32.00
C 63.72 31.72 61.50 32.76 61.00 31.00
C 55.51 30.95 50.90 28.00 46.00 26.00
C 49.11 32.27 64.12 36.16 70.00 34.00
L 70.00 29.00
C 65.52 29.83 61.94 28.36 59.00 26.00
C 58.19 25.35 57.67 24.64 57.00 24.00
C 57.00 24.00 56.35 24.23 56.00 24.00
C 52.19 24.74 60.38 28.72 62.00 30.00 Z"/>
</g>
<g fill="#8A8A8B" fill-opacity="1.00" stroke="None">
<path d="
M 59.00 26.00 
C 59.00 26.00 58.77 25.35 59.00 25.00
C 59.01 25.02 57.11 24.02 57.00 24.00
C 57.67 24.64 58.19 25.35 59.00 26.00 Z"/>
</g>
<g fill="#737476" fill-opacity="1.00" stroke="None">
<path d="
M 51.00 25.00 
C 49.34 23.34 51.61 25.61 51.00 25.00 Z"/>
</g>
<g fill="#885B26" fill-opacity="1.00" stroke="None">
<path d="
M 15.00 29.00 
C 15.12 29.10 15.73 28.13 16.00 28.00
C 15.65 28.13 15.27 28.83 15.00 29.00 Z"/>
</g>
<g fill="#BA853F" fill-opacity="1.00" stroke="None">
<path d="
M 5.00 29.00 
C -0.16 31.38 4.23 34.52 5.00 29.00 Z"/>
</g>
<g fill="#36200D" fill-opacity="1.00" stroke="None">
<path d="
M 4.00 36.00 
C 3.79 36.11 4.00 37.00 4.00 37.00
C 3.86 37.80 3.37 38.30 3.00 39.00
C 3.32 39.27 11.22 33.57 12.00 33.00
C 12.95 32.30 13.33 32.07 14.00 31.00
C 14.03 30.94 14.93 28.94 15.00 29.00
C 11.34 31.32 7.86 33.94 4.00 36.00 Z"/>
</g>
<g fill="#6C9BBE" fill-opacity="1.00" stroke="None">
<path d="
M 44.00 40.00 
C 43.84 40.34 43.35 40.97 43.00 41.00
C 42.39 43.26 42.35 44.94 41.00 47.00
C 40.32 48.05 40.01 48.34 39.00 49.00
C 36.58 50.58 34.70 50.44 32.00 51.00
C 29.01 51.62 26.93 51.61 24.00 51.00
C 17.52 51.53 12.85 45.83 10.00 41.00
C 8.49 43.79 4.78 43.48 6.00 47.00
C 7.48 46.83 12.92 52.39 15.00 53.00
C 22.90 55.30 31.68 57.55 29.00 69.00
C 28.49 61.58 23.56 52.26 14.00 55.00
C 13.71 56.18 14.02 57.78 14.00 59.00
C 16.67 57.80 22.15 61.89 24.00 63.00
C 24.32 63.19 24.96 63.65 25.00 64.00
C 25.22 66.09 24.58 68.25 26.00 70.00
L 42.00 70.00
C 46.24 67.39 51.93 63.34 55.25 59.25 C 58.57 55.16 63.95 47.05 64.00 47.00
C 65.09 44.74 66.48 41.91 70.00 43.00
L 70.00 38.00
C 67.58 39.15 66.02 41.65 65.00 44.00
C 62.16 41.40 55.95 43.15 52.25 39.75 C 48.55 36.35 47.35 32.23 44.00 29.00
C 44.22 32.91 45.71 36.26 44.00 40.00
M 51.00 42.00 
C 53.45 43.31 50.09 49.36 47.30 47.64 C 44.51 45.93 47.34 40.05 51.00 42.00
M 51.00 52.00 
C 52.62 60.23 40.17 63.45 37.00 56.00
C 42.31 59.94 48.82 57.80 51.00 52.00 Z"/>
</g>
<g fill="#40505D" fill-opacity="1.00" stroke="None">
<path d="
M 15.00 31.00 
C 15.35 30.97 15.73 30.18 16.00 30.00
C 15.67 30.17 15.26 30.88 15.00 31.00 Z"/>
</g>
<g fill="#494949" fill-opacity="1.00" stroke="None">
<path d="
M 61.00 31.00 
C 61.50 32.76 63.72 31.72 65.00 32.00
C 64.73 30.54 63.27 30.04 62.00 30.00
C 62.10 30.13 61.35 30.96 61.00 31.00 Z"/>
</g>
<g fill="#D4D5D6" fill-opacity="1.00" stroke="None">
<path d="
M 38.00 39.00 
C 38.76 39.40 38.97 39.69 38.00 40.00
C 33.68 40.85 28.81 37.79 25.00 38.00 C 21.20 38.20 17.26 34.14 15.00 36.00
C 15.24 36.19 15.00 37.00 15.00 37.00
C 19.97 39.98 34.21 47.06 40.00 46.00
C 39.92 45.92 40.82 45.27 41.00 45.00
C 41.52 43.82 41.49 42.15 42.00 41.00
C 42.15 40.66 42.65 40.03 43.00 40.00
C 42.15 36.06 26.82 37.90 31.00 33.00
C 27.29 31.25 23.07 33.12 20.00 35.00
C 25.98 35.26 32.79 36.25 38.00 39.00 Z"/>
</g>
<g fill="#6F6762" fill-opacity="1.00" stroke="None">
<path d="
M 3.00 39.00 
C 1.06 42.69 9.66 36.76 11.00 35.00
C 11.40 34.47 11.53 33.55 12.00 33.00
C 11.22 33.57 3.32 39.27 3.00 39.00 Z"/>
</g>
<g fill="#B7965F" fill-opacity="1.00" stroke="None">
<path d="
M 0.00 35.00 
C 0.74 35.20 1.05 33.77 0.00 34.00
L 0.00 35.00 Z"/>
</g>
<g fill="#9F8B5E" fill-opacity="1.00" stroke="None">
<path d="
M 0.00 37.00 
L 0.00 38.00
C 1.14 37.67 3.03 37.58 4.00 37.00
C 4.00 37.00 3.79 36.11 4.00 36.00
C 3.53 36.12 2.03 35.88 2.00 36.00
C 1.97 36.12 0.12 36.70 0.00 37.00 Z"/>
</g>
<g fill="#6C6D71" fill-opacity="1.00" stroke="None">
<path d="
M 15.00 37.00 
C 15.00 37.00 15.24 36.19 15.00 36.00
C 14.27 36.53 14.01 36.41 15.00 37.00 Z"/>
</g>
<g fill="#4F4F51" fill-opacity="1.00" stroke="None">
<path d="
M 38.00 40.00 
C 38.97 39.69 38.76 39.40 38.00 39.00
C 38.00 39.00 37.76 39.81 38.00 40.00 Z"/>
</g>
<g fill="#3B505C" fill-opacity="1.00" stroke="None">
<path d="
M 42.00 41.00 
C 42.00 41.00 42.50 41.05 43.00 41.00
C 43.35 40.97 43.84 40.34 44.00 40.00
C 44.00 40.00 43.50 39.95 43.00 40.00
C 42.65 40.03 42.15 40.66 42.00 41.00 Z"/>
</g>
<g fill="#31384A" fill-opacity="1.00" stroke="None">
<path d="
M 51.00 42.00 
C 47.34 40.05 44.51 45.93 47.30 47.64 C 50.09 49.36 53.45 43.31 51.00 42.00
M 50.00 45.00 
C 49.18 45.82 48.40 46.24 47.00 46.00
C 47.41 45.17 47.97 44.13 49.00 44.00
C 49.13 42.18 52.01 44.86 50.00 45.00 Z"/>
</g>
<g fill="#796E77" fill-opacity="1.00" stroke="None">
<path d="
M 49.00 44.00 
C 49.23 43.91 49.86 45.01 50.00 45.00
C 52.01 44.86 49.13 42.18 49.00 44.00 Z"/>
</g>
<g fill="#87BCC1" fill-opacity="1.00" stroke="None">
<path d="
M 64.00 47.00 
C 59.94 55.40 54.42 62.99 48.00 70.00
L 67.00 70.00
C 67.41 65.05 66.29 60.53 65.00 56.00
C 64.65 55.97 64.09 55.35 64.00 55.00
C 63.64 53.52 65.20 52.94 65.00 54.00
C 65.91 53.78 66.03 55.55 66.00 56.00
C 65.97 56.50 66.00 57.00 66.00 57.00
C 66.81 54.31 67.58 51.03 66.00 48.00
C 69.40 48.48 68.39 55.97 67.00 58.00
C 67.75 59.85 66.95 65.98 70.00 64.00
L 70.00 43.00
C 66.48 41.91 65.09 44.74 64.00 47.00 Z"/>
</g>
<g fill="#AE959D" fill-opacity="1.00" stroke="None">
<path d="
M 50.00 45.00 
C 49.86 45.01 49.23 43.91 49.00 44.00
C 47.97 44.13 47.41 45.17 47.00 46.00
C 48.40 46.24 49.18 45.82 50.00 45.00 Z"/>
</g>
<g fill="#5B6669" fill-opacity="1.00" stroke="None">
<path d="
M 40.00 46.00 
C 40.09 46.09 40.85 45.34 41.00 45.00
C 40.82 45.27 39.92 45.92 40.00 46.00 Z"/>
</g>
<g fill="#163342" fill-opacity="1.00" stroke="None">
<path d="
M 42.00 70.00 
L 48.00 70.00
C 54.42 62.99 59.94 55.40 64.00 47.00
C 63.95 47.05 58.57 55.16 55.25 59.25 C 51.93 63.34 46.24 67.39 42.00 70.00 Z"/>
</g>
<g fill="#80BABE" fill-opacity="1.00" stroke="None">
<path d="
M 0.00 56.00 
C 1.47 54.84 6.07 55.36 7.00 57.00
C 7.77 52.70 9.93 52.75 6.00 49.00
C 4.03 48.67 2.59 45.59 0.00 47.00
L 0.00 56.00 Z"/>
</g>
<g fill="#25383C" fill-opacity="1.00" stroke="None">
<path d="
M 6.00 49.00 
C 9.93 52.75 7.77 52.70 7.00 57.00
C 6.54 59.58 7.35 62.40 7.00 65.00
C 9.65 65.21 12.35 64.84 15.00 65.00
C 14.94 66.89 16.42 68.29 17.00 70.00
L 22.00 70.00
C 21.03 68.09 20.41 66.10 20.00 64.00
C 18.91 74.27 14.11 60.93 14.00 59.00
C 14.02 57.78 13.71 56.18 14.00 55.00
C 14.03 54.89 15.05 52.98 15.00 53.00
C 12.92 52.39 7.48 46.83 6.00 47.00
C 6.15 47.45 5.75 48.76 6.00 49.00
M 13.00 56.00 
C 10.55 60.77 6.88 54.63 13.00 56.00
M 12.00 59.00 
C 10.87 64.15 5.02 57.60 12.00 59.00
M 13.00 63.00 
C 8.30 66.42 7.35 59.35 13.00 63.00 Z"/>
</g>
<g fill="#344E61" fill-opacity="1.00" stroke="None">
<path d="
M 39.00 49.00 
C 40.01 48.34 40.32 48.05 41.00 47.00
C 40.66 47.39 39.44 48.62 39.00 49.00 Z"/>
</g>
<g fill="#335A5E" fill-opacity="1.00" stroke="None">
<path d="
M 66.00 57.00 
C 66.03 57.35 66.90 57.74 67.00 58.00
C 68.39 55.97 69.40 48.48 66.00 48.00
C 67.58 51.03 66.81 54.31 66.00 57.00 Z"/>
</g>
<g fill="#374F60" fill-opacity="1.00" stroke="None">
<path d="
M 32.00 51.00 
C 29.48 51.23 26.52 51.23 24.00 51.00
C 26.93 51.61 29.01 51.62 32.00 51.00 Z"/>
</g>
<g fill="#143149" fill-opacity="1.00" stroke="None">
<path d="
M 51.00 52.00 
C 48.82 57.80 42.31 59.94 37.00 56.00
C 40.17 63.45 52.62 60.23 51.00 52.00 Z"/>
</g>
<g fill="#264866" fill-opacity="1.00" stroke="None">
<path d="
M 14.00 55.00 
C 23.56 52.26 28.49 61.58 29.00 69.00
C 31.68 57.55 22.90 55.30 15.00 53.00
C 15.05 52.98 14.03 54.89 14.00 55.00 Z"/>
</g>
<g fill="#00272A" fill-opacity="1.00" stroke="None">
<path d="
M 64.00 55.00 
C 64.04 54.78 64.93 54.35 65.00 54.00
C 65.20 52.94 63.64 53.52 64.00 55.00 Z"/>
</g>
<g fill="#486C6D" fill-opacity="1.00" stroke="None">
<path d="
M 64.00 55.00 
C 64.09 55.35 64.65 55.97 65.00 56.00
C 65.50 56.05 66.00 56.00 66.00 56.00
C 66.03 55.55 65.91 53.78 65.00 54.00
C 64.93 54.35 64.04 54.78 64.00 55.00 Z"/>
</g>
<g fill="#A9CDC3" fill-opacity="1.00" stroke="None">
<path d="
M 0.00 56.00 
L 0.00 64.00
C 2.58 63.76 4.49 64.80 7.00 65.00
C 7.35 62.40 6.54 59.58 7.00 57.00
C 6.07 55.36 1.47 54.84 0.00 56.00 Z"/>
</g>
<g fill="#8DACAA" fill-opacity="1.00" stroke="None">
<path d="
M 13.00 56.00 
C 6.88 54.63 10.55 60.77 13.00 56.00 Z"/>
</g>
<g fill="#15363A" fill-opacity="1.00" stroke="None">
<path d="
M 67.00 70.00 
L 70.00 70.00
L 70.00 69.00
C 68.72 68.78 68.58 66.19 70.00 66.00
L 70.00 64.00
C 66.95 65.98 67.75 59.85 67.00 58.00
C 66.90 57.74 66.03 57.35 66.00 57.00
C 66.00 57.00 65.97 56.50 66.00 56.00
C 66.00 56.00 65.50 56.05 65.00 56.00
C 66.29 60.53 67.41 65.05 67.00 70.00 Z"/>
</g>
<g fill="#99ABA5" fill-opacity="1.00" stroke="None">
<path d="
M 12.00 59.00 
C 5.02 57.60 10.87 64.15 12.00 59.00 Z"/>
</g>
<g fill="#98ACAD" fill-opacity="1.00" stroke="None">
<path d="
M 22.00 70.00 
L 23.00 70.00
C 23.68 68.45 23.53 66.64 24.00 65.00
C 24.00 65.02 21.97 62.93 24.00 63.00
C 22.15 61.89 16.67 57.80 14.00 59.00
C 14.11 60.93 18.91 74.27 20.00 64.00
C 20.41 66.10 21.03 68.09 22.00 70.00 Z"/>
</g>
<g fill="#96A6A0" fill-opacity="1.00" stroke="None">
<path d="
M 13.00 63.00 
C 7.35 59.35 8.30 66.42 13.00 63.00 Z"/>
</g>
<g fill="#5F7A80" fill-opacity="1.00" stroke="None">
<path d="
M 24.00 65.00 
C 24.10 64.65 24.96 64.22 25.00 64.00
C 24.96 63.65 24.32 63.19 24.00 63.00
C 21.97 62.93 24.00 65.02 24.00 65.00 Z"/>
</g>
<g fill="#8AA5AF" fill-opacity="1.00" stroke="None">
<path d="
M 0.00 67.00 
C 4.10 67.72 9.74 65.59 13.00 68.00
C 13.50 68.00 14.00 68.00 14.00 68.00
C 14.35 68.03 14.97 68.65 15.00 69.00
C 15.05 69.50 15.00 70.00 15.00 70.00
L 17.00 70.00
C 16.42 68.29 14.94 66.89 15.00 65.00
C 12.35 64.84 9.65 65.21 7.00 65.00
C 4.49 64.80 2.58 63.76 0.00 64.00
L 0.00 67.00 Z"/>
</g>
<g fill="#152433" fill-opacity="1.00" stroke="None">
<path d="
M 24.00 65.00 
C 23.53 66.64 23.68 68.45 23.00 70.00
L 26.00 70.00
C 24.58 68.25 25.22 66.09 25.00 64.00
C 24.96 64.22 24.10 64.65 24.00 65.00 Z"/>
</g>
<g fill="#95B2B5" fill-opacity="1.00" stroke="None">
<path d="
M 70.00 69.00 
L 70.00 66.00
C 68.58 66.19 68.72 68.78 70.00 69.00 Z"/>
</g>
<g fill="#455A52" fill-opacity="1.00" stroke="None">
<path d="
M 0.00 68.00 
C 4.00 68.00 8.00 68.00 12.00 68.00
C 12.50 68.00 13.00 68.00 13.00 68.00
C 9.74 65.59 4.10 67.72 0.00 67.00
L 0.00 68.00 Z"/>
</g>
<g fill="#474415" fill-opacity="1.00" stroke="None">
<path d="
M 0.00 69.00 
C 3.94 69.42 8.08 68.44 12.00 69.00
C 11.81 68.59 12.00 68.00 12.00 68.00
C 8.00 68.00 4.00 68.00 0.00 68.00
L 0.00 69.00 Z"/>
</g>
<g fill="#23291F" fill-opacity="1.00" stroke="None">
<path d="
M 12.00 69.00 
C 12.12 69.26 12.84 69.67 13.00 70.00
L 15.00 70.00
C 15.00 70.00 15.05 69.50 15.00 69.00
C 14.88 68.74 14.26 68.12 14.00 68.00
C 14.00 68.00 13.50 68.00 13.00 68.00
C 13.00 68.00 12.50 68.00 12.00 68.00
C 12.00 68.00 11.81 68.59 12.00 69.00 Z"/>
</g>
<g fill="#4E6063" fill-opacity="1.00" stroke="None">
<path d="
M 15.00 69.00 
C 14.97 68.65 14.35 68.03 14.00 68.00
C 14.26 68.12 14.88 68.74 15.00 69.00 Z"/>
</g>
<g fill="#CBBD7C" fill-opacity="1.00" stroke="None">
<path d="
M 0.00 70.00 
L 13.00 70.00
C 12.84 69.67 12.12 69.26 12.00 69.00
C 8.08 68.44 3.94 69.42 0.00 69.00
L 0.00 70.00 Z"/>
</g>
</svg>